<svg width="14" height="16" viewBox="0 0 14 16" fill="none" xmlns="http://www.w3.org/2000/svg">
<path d="M7.36842 9.96571V11.4586C6.70152 11.23 5.98778 11.1599 5.28714 11.2541C4.5865 11.3484 3.91941 11.6042 3.3419 12.0001C2.76438 12.3961 2.29331 12.9206 1.96823 13.5296C1.64314 14.1386 1.47355 14.8143 1.47368 15.5H4.2384e-07C-0.000340775 14.6277 0.205326 13.7669 0.60124 12.9836C0.997154 12.2003 1.57281 11.5153 2.28408 10.981C2.99535 10.4467 3.82337 10.0773 4.70467 9.90121C5.58597 9.72511 6.49717 9.74764 7.36842 9.96571ZM5.89474 9.07143C3.45211 9.07143 1.47368 7.15357 1.47368 4.78571C1.47368 2.41786 3.45211 0.5 5.89474 0.5C8.33737 0.5 10.3158 2.41786 10.3158 4.78571C10.3158 7.15357 8.33737 9.07143 5.89474 9.07143ZM5.89474 7.64286C7.52316 7.64286 8.84211 6.36429 8.84211 4.78571C8.84211 3.20714 7.52316 1.92857 5.89474 1.92857C4.26632 1.92857 2.94737 3.20714 2.94737 4.78571C2.94737 6.36429 4.26632 7.64286 5.89474 7.64286ZM10.3158 11.9286V9.78571H11.7895V11.9286H14V13.3571H11.7895V15.5H10.3158V13.3571H8.10526V11.9286H10.3158Z" fill="white"/>
</svg>
