<svg width="16" height="16" viewBox="0 0 16 16" fill="none" xmlns="http://www.w3.org/2000/svg">
<path d="M15.528 7.664L8.328 0.464C8.032 0.168 7.624 0 7.2 0H1.6C0.72 0 0 0.72 0 1.6V7.2C0 7.624 0.168 8.032 0.472 8.328L0.8 8.648C1.52 8.216 2.352 8 3.2 8C5.848 8 8 10.152 8 12.8C8 13.648 7.776 14.472 7.344 15.2L7.664 15.52C7.96 15.824 8.376 16 8.8 16C9.224 16 9.632 15.832 9.928 15.528L15.528 9.928C15.832 9.632 16 9.224 16 8.8C16 8.376 15.832 7.968 15.528 7.664ZM2.8 4C2.136 4 1.6 3.464 1.6 2.8C1.6 2.136 2.136 1.6 2.8 1.6C3.464 1.6 4 2.136 4 2.8C4 3.464 3.464 4 2.8 4ZM5.304 9.816L2.208 12.936L1.128 11.84L0 12.976L2.2 15.2L6.424 10.944L5.304 9.816Z" fill="white"/>
</svg>
