<svg width="21" height="22" viewBox="0 0 21 22" fill="none" xmlns="http://www.w3.org/2000/svg">
<path d="M5.83331 6.55554V5.44443C5.83331 4.2657 6.30742 3.13524 7.15133 2.30174C7.99525 1.46825 9.13984 1 10.3333 1C11.5268 1 12.6714 1.46825 13.5153 2.30174C14.3592 3.13524 14.8333 4.2657 14.8333 5.44443V6.55554M13.7083 13.2222V11M6.95831 13.2222V11" stroke="#6E6E6E" stroke-width="1.8" stroke-linecap="round"/>
<path d="M1.33334 11C1.33334 8.90442 1.33334 7.85776 1.99259 7.20665C2.65184 6.55554 3.71159 6.55554 5.83334 6.55554H14.8333C16.9551 6.55554 18.0148 6.55554 18.6741 7.20665C19.3333 7.85776 19.3333 8.90442 19.3333 11V12.1111C19.3333 16.3011 19.3333 18.3966 18.0148 19.6977C16.6963 20.9988 14.5757 20.9999 10.3333 20.9999C6.09097 20.9999 3.96922 20.9999 2.65184 19.6977C1.33447 18.3955 1.33334 16.3011 1.33334 12.1111V11Z" stroke="#6E6E6E" stroke-width="1.8"/>
</svg>
