<svg width="15" height="15" viewBox="0 0 15 15" fill="none" xmlns="http://www.w3.org/2000/svg">
<path d="M4.11422 10.9999C4.23085 10.6577 4.44077 10.3777 4.744 10.1599C5.04722 9.94214 5.38543 9.83325 5.75863 9.83325C6.13183 9.83325 6.47005 9.94214 6.77327 10.1599C7.0765 10.3777 7.28642 10.6577 7.40305 10.9999H13.3393V12.1666H7.40305C7.28642 12.5088 7.0765 12.7888 6.77327 13.0066C6.47005 13.2244 6.13183 13.3333 5.75863 13.3333C5.38543 13.3333 5.04722 13.2244 4.744 13.0066C4.44077 12.7888 4.23085 12.5088 4.11422 12.1666H1.67676V10.9999H4.11422ZM7.61297 6.91659C7.7296 6.57436 7.93952 6.29436 8.24275 6.07659C8.54597 5.85881 8.88418 5.74992 9.25738 5.74992C9.63058 5.74992 9.96879 5.85881 10.272 6.07659C10.5752 6.29436 10.7852 6.57436 10.9018 6.91659H13.3393V8.08325H10.9018C10.7852 8.42547 10.5752 8.70547 10.272 8.92325C9.96879 9.14103 9.63058 9.24992 9.25738 9.24992C8.88418 9.24992 8.54597 9.14103 8.24275 8.92325C7.93952 8.70547 7.7296 8.42547 7.61297 8.08325H1.67676V6.91659H7.61297ZM4.11422 2.83325C4.23085 2.49103 4.44077 2.21103 4.744 1.99325C5.04722 1.77547 5.38543 1.66658 5.75863 1.66658C6.13183 1.66658 6.47005 1.77547 6.77327 1.99325C7.0765 2.21103 7.28642 2.49103 7.40305 2.83325H13.3393V3.99992H7.40305C7.28642 4.34214 7.0765 4.62214 6.77327 4.83992C6.47005 5.0577 6.13183 5.16658 5.75863 5.16658C5.38543 5.16658 5.04722 5.0577 4.744 4.83992C4.44077 4.62214 4.23085 4.34214 4.11422 3.99992H1.67676V2.83325H4.11422ZM5.75863 3.99992C5.92191 3.99992 6.05991 3.94353 6.17265 3.83075C6.28539 3.71797 6.34176 3.57992 6.34176 3.41658C6.34176 3.25325 6.28539 3.1152 6.17265 3.00242C6.05991 2.88964 5.92191 2.83325 5.75863 2.83325C5.59536 2.83325 5.45735 2.88964 5.34461 3.00242C5.23188 3.1152 5.17551 3.25325 5.17551 3.41658C5.17551 3.57992 5.23188 3.71797 5.34461 3.83075C5.45735 3.94353 5.59536 3.99992 5.75863 3.99992ZM9.25738 8.08325C9.42066 8.08325 9.55866 8.02686 9.6714 7.91409C9.78414 7.80131 9.84051 7.66325 9.84051 7.49992C9.84051 7.33659 9.78414 7.19853 9.6714 7.08575C9.55866 6.97297 9.42066 6.91659 9.25738 6.91659C9.09411 6.91659 8.9561 6.97297 8.84336 7.08575C8.73063 7.19853 8.67426 7.33659 8.67426 7.49992C8.67426 7.66325 8.73063 7.80131 8.84336 7.91409C8.9561 8.02686 9.09411 8.08325 9.25738 8.08325ZM5.75863 12.1666C5.92191 12.1666 6.05991 12.1102 6.17265 11.9974C6.28539 11.8846 6.34176 11.7466 6.34176 11.5833C6.34176 11.4199 6.28539 11.2819 6.17265 11.1691C6.05991 11.0563 5.92191 10.9999 5.75863 10.9999C5.59536 10.9999 5.45735 11.0563 5.34461 11.1691C5.23188 11.2819 5.17551 11.4199 5.17551 11.5833C5.17551 11.7466 5.23188 11.8846 5.34461 11.9974C5.45735 12.1102 5.59536 12.1666 5.75863 12.1666Z" fill="#1F2937"/>
</svg>
