<?xml version="1.0" encoding="UTF-8"?>
<svg id="Layer_1" xmlns="http://www.w3.org/2000/svg" version="1.1" viewBox="0 0 20 20">
  <!-- Generator: Adobe Illustrator 29.5.0, SVG Export Plug-In . SVG Version: 2.1.0 Build 137)  -->
  <path d="M19.9,9.8c0-.1,0-.2-.2-.3L10.4.2c-.1-.1-.3-.2-.4-.2s-.3,0-.4.2L.2,9.6c0,0-.1.2-.2.3,0,.1,0,.2,0,.4,0,.1.1.2.2.3.1,0,.2.1.3.1h1.5s0,7.7,0,7.7c0,.9.8,1.7,1.7,1.7h12.4c.9,0,1.7-.8,1.7-1.7v-7.7s1.4,0,1.4,0c.1,0,.2,0,.3-.1.1,0,.2-.2.2-.3,0-.1,0-.2,0-.4ZM12.5,18.7h-5s0-6,0-6h5s0,6,0,6ZM16.7,18.7h-2.9s0-5.6,0-5.6c0-.9-.8-1.7-1.7-1.7h-4.1c-.9,0-1.7.8-1.7,1.7v5.6s-2.9,0-2.9,0v-10.5S10,1.5,10,1.5l6.7,6.6v10.5Z"/>
</svg>