<svg width="25" height="24" viewBox="0 0 25 24" fill="none" xmlns="http://www.w3.org/2000/svg">
<path d="M4.75 2.0835H20.75C21.7403 2.0835 22.5497 2.89904 22.5498 3.90674V16.0483C22.5498 17.0561 21.7403 17.8716 20.75 17.8716H13.9707L13.9229 17.9009L7.9502 21.5278V17.8716H4.75C3.75967 17.8716 2.9502 17.0561 2.9502 16.0483V3.90674C2.95027 2.89904 3.7597 2.0835 4.75 2.0835ZM4.5498 16.2485H9.5498V18.6626L9.85352 18.479L13.5293 16.2485H20.9502V3.70654H4.5498V16.2485Z" fill="black" stroke="white" stroke-width="0.4"/>
<path d="M14.5498 11.0835V12.6831H7.9502V11.0835H14.5498ZM17.5498 7.0835V8.68311H7.9502V7.0835H17.5498Z" fill="black" stroke="white" stroke-width="0.4"/>
</svg>
