<svg width="25" height="24" viewBox="0 0 25 24" fill="none" xmlns="http://www.w3.org/2000/svg">
<path d="M13 2.2002C13.2121 2.20025 13.4155 2.28464 13.5654 2.43457L22.5654 11.4346C22.6771 11.5464 22.7533 11.6887 22.7842 11.8438C22.815 11.9989 22.7988 12.1595 22.7383 12.3057C22.6778 12.4518 22.5758 12.5771 22.4443 12.665C22.3129 12.7529 22.1581 12.7997 22 12.7998H20.7998V20C20.7997 20.9924 19.9924 21.7997 19 21.7998H7C6.00753 21.7998 5.20031 20.9924 5.2002 20V12.7998H4C3.84188 12.7998 3.68715 12.7529 3.55566 12.665C3.42414 12.5771 3.32128 12.4518 3.26074 12.3057C3.2003 12.1596 3.18498 11.9988 3.21582 11.8438C3.24669 11.6886 3.32276 11.5464 3.43457 11.4346L12.4346 2.43457C12.5846 2.28461 12.7879 2.2002 13 2.2002ZM10.7998 20.2002H15.2002V14.7998H10.7998V20.2002ZM19.2002 10.3311L13 4.13086L6.7998 10.3311V20.2002H9.2002V15C9.2002 14.0075 10.0075 13.2002 11 13.2002H15C15.9924 13.2003 16.7998 14.0075 16.7998 15V20.2002H19.2012V20L19.2002 15V10.3311Z" fill="#FF2F40" stroke="white" stroke-width="0.4"/>
</svg>
