<svg width="18" height="18" viewBox="0 0 18 18" fill="none" xmlns="http://www.w3.org/2000/svg">
<path fill-rule="evenodd" clip-rule="evenodd" d="M9 18C11.3869 18 13.6761 17.0518 15.364 15.364C17.0518 13.6761 18 11.3869 18 9C18 6.61305 17.0518 4.32387 15.364 2.63604C13.6761 0.948211 11.3869 0 9 0C6.61305 0 4.32387 0.948211 2.63604 2.63604C0.948211 4.32387 0 6.61305 0 9C0 11.3869 0.948211 13.6761 2.63604 15.364C4.32387 17.0518 6.61305 18 9 18ZM7.07143 12.0536C6.85831 12.0536 6.65392 12.1382 6.50322 12.2889C6.35252 12.4396 6.26786 12.644 6.26786 12.8571C6.26786 13.0703 6.35252 13.2747 6.50322 13.4254C6.65392 13.5761 6.85831 13.6607 7.07143 13.6607H10.9286C11.1417 13.6607 11.3461 13.5761 11.4968 13.4254C11.6475 13.2747 11.7321 13.0703 11.7321 12.8571C11.7321 12.644 11.6475 12.4396 11.4968 12.2889C11.3461 12.1382 11.1417 12.0536 10.9286 12.0536H9.80357V8.35714C9.80357 8.14402 9.71891 7.93963 9.56821 7.78893C9.41751 7.63823 9.21312 7.55357 9 7.55357H7.71429C7.50117 7.55357 7.29677 7.63823 7.14607 7.78893C6.99538 7.93963 6.91071 8.14402 6.91071 8.35714C6.91071 8.57026 6.99538 8.77465 7.14607 8.92535C7.29677 9.07605 7.50117 9.16071 7.71429 9.16071H8.19643V12.0536H7.07143ZM10.2857 5.14286C10.2857 5.48385 10.1503 5.81088 9.90914 6.05199C9.66802 6.29311 9.34099 6.42857 9 6.42857C8.65901 6.42857 8.33198 6.29311 8.09086 6.05199C7.84974 5.81088 7.71429 5.48385 7.71429 5.14286C7.71429 4.80186 7.84974 4.47484 8.09086 4.23372C8.33198 3.9926 8.65901 3.85714 9 3.85714C9.34099 3.85714 9.66802 3.9926 9.90914 4.23372C10.1503 4.47484 10.2857 4.80186 10.2857 5.14286Z" fill="black" fill-opacity="0.5"/>
</svg>
