<svg width="15" height="18" viewBox="0 0 15 18" fill="none" xmlns="http://www.w3.org/2000/svg">
<path d="M9.375 7.71418C9.375 7.2027 9.17746 6.71217 8.82583 6.35049C8.47419 5.98882 7.99728 5.78564 7.5 5.78564C7.00272 5.78564 6.52581 5.98882 6.17417 6.35049C5.82254 6.71217 5.625 7.2027 5.625 7.71418C5.625 8.22567 5.82254 8.7162 6.17417 9.07787C6.52581 9.43954 7.00272 9.64273 7.5 9.64273C7.99728 9.64273 8.47419 9.43954 8.82583 9.07787C9.17746 8.7162 9.375 8.22567 9.375 7.71418ZM15 7.71418C15 11.4093 11.1288 15.4489 8.94875 17.4315C8.55014 17.7976 8.03442 18 7.5 18C6.96558 18 6.44986 17.7976 6.05125 17.4315C3.87125 15.4489 0 11.4093 0 7.71418C-1.46764e-08 6.70114 0.193993 5.69802 0.570903 4.76209C0.947814 3.82616 1.50026 2.97576 2.1967 2.25943C2.89314 1.5431 3.71993 0.974881 4.62987 0.587207C5.53982 0.199533 6.51509 0 7.5 0C8.48491 0 9.46018 0.199533 10.3701 0.587207C11.2801 0.974881 12.1069 1.5431 12.8033 2.25943C13.4997 2.97576 14.0522 3.82616 14.4291 4.76209C14.806 5.69802 15 6.70114 15 7.71418ZM13.75 7.71418C13.75 6.00924 13.0915 4.37413 11.9194 3.16856C10.7473 1.96298 9.1576 1.2857 7.5 1.2857C5.8424 1.2857 4.25269 1.96298 3.08058 3.16856C1.90848 4.37413 1.25 6.00924 1.25 7.71418C1.25 9.13873 2.01875 10.7934 3.2125 12.4494C4.38 14.0668 5.82125 15.5055 6.87875 16.4685C7.0489 16.6271 7.27034 16.715 7.5 16.715C7.72966 16.715 7.9511 16.6271 8.12125 16.4685C9.17875 15.5055 10.6213 14.0681 11.7875 12.4494C12.9813 10.7934 13.75 9.13873 13.75 7.71418Z" fill="#FF2F40"/>
</svg>
