<svg width="17" height="20" viewBox="0 0 17 20" fill="none" xmlns="http://www.w3.org/2000/svg">
<path fill-rule="evenodd" clip-rule="evenodd" d="M8.5 0C6.54075 0 4.8875 0.573091 3.723 1.77745C2.56133 2.98036 2.00883 4.68945 2.00883 6.71127C2.00883 7.51127 1.8955 7.96509 1.77367 8.24146C1.6575 8.50618 1.50733 8.67346 1.28917 8.88L1.19992 8.96291C0.99025 9.15636 0.678583 9.44291 0.44625 9.83127C0.151583 10.32 0 10.9164 0 11.6975C0 12.7651 0.575167 13.5462 1.292 14.0756C1.989 14.592 2.88858 14.9265 3.76833 15.1535C5.53775 15.6102 7.52392 15.6975 8.5 15.6975C9.47608 15.6975 11.4622 15.6102 13.2317 15.1535C14.1114 14.9265 15.0096 14.592 15.708 14.0771C16.4248 13.5462 17 12.7651 17 11.6975C17 10.9149 16.8484 10.32 16.5552 9.83127C16.3453 9.50619 16.091 9.21375 15.8001 8.96291L15.7094 8.88C15.4927 8.67346 15.3425 8.50618 15.2263 8.24146C15.1045 7.96509 14.9912 7.51273 14.9912 6.71127C14.9912 4.68945 14.4387 2.98036 13.277 1.77745C12.1125 0.573091 10.4578 0 8.5 0ZM3.77967 6.71127C3.77967 5.01964 4.23725 3.82691 4.981 3.05745C5.72475 2.288 6.87083 1.81818 8.5 1.81818C10.1292 1.81818 11.2767 2.28945 12.019 3.05745C12.7627 3.82836 13.2203 5.02109 13.2203 6.71127C13.2203 7.68145 13.3577 8.40873 13.6128 8.98909C13.8734 9.58255 14.2247 9.94618 14.5095 10.2167L14.6427 10.3418C14.8538 10.5382 14.9572 10.6356 15.0464 10.7855C15.13 10.9236 15.2292 11.168 15.2292 11.6975C15.2292 12.0029 15.0889 12.2938 14.6738 12.5993C14.2389 12.9222 13.5887 13.1869 12.801 13.3905C11.2356 13.7935 9.41517 13.8793 8.5 13.8793C7.58483 13.8793 5.76442 13.7935 4.199 13.3905C3.41133 13.1869 2.76108 12.9207 2.32617 12.6007C1.91108 12.2924 1.77083 12.0015 1.77083 11.6975C1.77083 11.168 1.87 10.9236 1.95358 10.7855C2.04283 10.6356 2.14625 10.5382 2.35592 10.3418L2.4905 10.2167C2.77383 9.94618 3.128 9.58255 3.38725 8.98909C3.64225 8.40873 3.77967 7.68145 3.77967 6.71127ZM6.25458 16.8102C6.11082 16.8102 5.96922 16.8462 5.84202 16.915C5.71483 16.9838 5.60586 17.0833 5.52455 17.2051C5.44323 17.3268 5.392 17.467 5.3753 17.6136C5.35859 17.7603 5.37691 17.9088 5.42867 18.0465C5.66383 18.6705 6.06617 19.1767 6.6215 19.5185C7.16833 19.8531 7.8115 20 8.5 20C9.18708 20 9.83167 19.8545 10.3771 19.5185C10.9338 19.1767 11.3362 18.6705 11.5699 18.0465C11.6217 17.9088 11.64 17.7603 11.6233 17.6136C11.6066 17.467 11.5554 17.3268 11.474 17.2051C11.3927 17.0833 11.2838 16.9838 11.1566 16.915C11.0294 16.8462 10.8878 16.8102 10.744 16.8102H6.25458Z" fill="#6E6E6E"/>
</svg>
