<svg width="21" height="20" viewBox="0 0 21 20" fill="none" xmlns="http://www.w3.org/2000/svg">
<path d="M6.5 2L3.5 0L0.5 2V17C0.5 17.5467 0.633333 18.05 0.9 18.51C1.16667 18.97 1.53 19.3333 1.99 19.6C2.45 19.8667 2.95333 20 3.5 20H17.5C18.0467 20 18.55 19.8667 19.01 19.6C19.47 19.3333 19.8333 18.97 20.1 18.51C20.3667 18.05 20.5 17.5467 20.5 17V14H18.5V2L15.5 0L12.5 2L9.5 0L6.5 2ZM16.5 14H4.5V17C4.5 17.28 4.40333 17.5167 4.21 17.71C4.01667 17.9033 3.78 18 3.5 18C3.22 18 2.98333 17.9033 2.79 17.71C2.59667 17.5167 2.5 17.28 2.5 17V3.08L3.5 2.4L6.5 4.4L9.5 2.4L12.5 4.4L15.5 2.4L16.5 3.08V14ZM17.5 18H6.32C6.44 17.68 6.5 17.3467 6.5 17V16H18.5V17C18.5 17.28 18.4033 17.5167 18.21 17.71C18.0167 17.9033 17.78 18 17.5 18Z" fill="#FF4D8C"/>
</svg>
