<svg width="32" height="33" viewBox="0 0 32 33" fill="none" xmlns="http://www.w3.org/2000/svg">
<path fill-rule="evenodd" clip-rule="evenodd" d="M14.17 6.39535C9.6613 6.39535 5.97237 9.96007 5.97237 14.3976C5.97237 18.8351 9.6613 22.3998 14.17 22.3998C18.6786 22.3998 22.3676 18.8351 22.3676 14.3976C22.3676 9.96007 18.6786 6.39535 14.17 6.39535ZM4.5 14.3976C4.5 9.22546 8.81065 5 14.17 5C19.5293 5 23.8399 9.22546 23.8399 14.3976C23.8399 19.5697 19.5293 23.7952 14.17 23.7952C8.81065 23.7952 4.5 19.5697 4.5 14.3976Z" fill="#F43B41"/>
<path fill-rule="evenodd" clip-rule="evenodd" d="M20.5413 19.692C21.0534 19.5261 21.7826 19.6872 22.1699 20.0519L26.9478 24.5498C27.3351 24.9144 27.2339 25.3445 26.7218 25.5104C26.2098 25.6763 25.4806 25.5152 25.0933 25.1505L20.3154 20.6526C19.9281 20.288 20.0293 19.8579 20.5413 19.692Z" fill="#F43B41"/>
</svg>
