<svg width="73" height="73" viewBox="0 0 73 73" fill="none" xmlns="http://www.w3.org/2000/svg">
<path d="M66.9168 66.9168L60.8336 60.8335M6.0835 34.9793C6.0835 19.0206 19.0206 6.0835 34.9793 6.0835C50.9381 6.0835 63.8752 19.0206 63.8752 34.9793C63.8752 50.9381 50.9381 63.8752 34.9793 63.8752C19.0206 63.8752 6.0835 50.9381 6.0835 34.9793Z" stroke="black" stroke-width="2.2" stroke-linecap="round" stroke-linejoin="round"/>
<path d="M49.0832 50.0831L46.1665 47.1665M19.9165 34.7707C19.9165 27.1192 26.1192 20.9165 33.7707 20.9165C41.4221 20.9165 47.6248 27.1192 47.6248 34.7707C47.6248 42.4221 41.4221 48.6248 33.7707 48.6248C26.1192 48.6248 19.9165 42.4221 19.9165 34.7707Z" stroke="black" stroke-width="2.2" stroke-linecap="round" stroke-linejoin="round"/>
</svg>
