<svg width="20" height="20" viewBox="0 0 20 20" fill="none" xmlns="http://www.w3.org/2000/svg">
<path d="M7.45703 19.6318C9.1521 20.0564 10.8469 20.0563 12.542 19.6318C12.522 19.091 12.649 18.5728 12.9229 18.0781C13.2041 17.5703 13.6054 17.1707 14.125 16.8799C14.6447 16.589 15.2039 16.4533 15.8008 16.4736C16.383 16.4935 16.915 16.6531 17.3975 16.9502C18.6122 15.746 19.4592 14.3305 19.9395 12.7021C19.4375 12.4459 19.0318 12.0804 18.7236 11.6055C18.4072 11.1179 18.249 10.5824 18.249 10C18.249 9.41764 18.4072 8.88214 18.7236 8.39453C19.0318 7.91974 19.4377 7.55508 19.9395 7.29883C19.7061 6.50459 19.3738 5.74861 18.9404 5.03125C18.5065 4.31305 17.9917 3.65329 17.3975 3.05078C16.9151 3.34768 16.3828 3.50653 15.8008 3.52637C15.2039 3.54666 14.6447 3.41097 14.125 3.12012C13.6054 2.82933 13.2041 2.4297 12.9229 1.92188C12.6492 1.42751 12.5222 0.909664 12.542 0.369141C10.8468 -0.0553735 9.15226 -0.055527 7.45703 0.369141C7.47686 0.909677 7.35084 1.42749 7.07715 1.92188C6.79592 2.4297 6.39457 2.82933 5.875 3.12012C5.35526 3.41097 4.79614 3.54666 4.19922 3.52637C3.61692 3.50652 3.08414 3.34796 2.60156 3.05078C1.38707 4.25506 0.539677 5.67042 0.0595703 7.29883C0.561681 7.5551 0.968078 7.9195 1.27637 8.39453C1.59279 8.88214 1.75098 9.41764 1.75098 10C1.75098 10.5824 1.59279 11.1179 1.27637 11.6055C0.967997 12.0806 0.561863 12.4459 0.0595703 12.7021C0.292956 13.4962 0.626316 14.2516 1.05957 14.9688C1.49347 15.6869 2.00733 16.3477 2.60156 16.9502C3.08425 16.6528 3.61674 16.4935 4.19922 16.4736C4.79614 16.4533 5.35526 16.589 5.875 16.8799C6.39457 17.1707 6.79592 17.5703 7.07715 18.0781C7.35101 18.5728 7.47705 19.0909 7.45703 19.6318ZM10.7725 18.002C10.2575 18.0555 9.74249 18.0555 9.22754 18.002L9.19629 17.998L9.18555 17.9688C8.98012 17.4017 8.67866 16.8804 8.28125 16.4053C7.93379 15.9899 7.52832 15.6406 7.06543 15.3564L6.86328 15.2383C6.3156 14.9218 5.72662 14.7173 5.09668 14.625C4.46622 14.5326 3.84956 14.5527 3.24707 14.6846L3.21484 14.6914L3.19629 14.6641C3.04355 14.4501 2.90055 14.2365 2.76855 14.0225C2.63629 13.8079 2.51468 13.5863 2.40332 13.3584L2.3877 13.3271L2.41211 13.3027C2.83658 12.8544 3.16087 12.3461 3.38672 11.7793C3.6125 11.2126 3.72559 10.6197 3.72559 10C3.72559 9.38027 3.6125 8.78743 3.38672 8.2207C3.16087 7.6539 2.83658 7.1456 2.41211 6.69727L2.3877 6.67285L2.40332 6.6416C2.62597 6.18597 2.89025 5.75026 3.19629 5.33496L3.21582 5.30859L3.24707 5.31543C3.84958 5.4473 4.46251 5.46736 5.08594 5.375C5.70925 5.28265 6.30231 5.08167 6.86426 4.77148C7.42584 4.46145 7.90112 4.06898 8.29102 3.59473C8.68161 3.11958 8.98006 2.59847 9.18555 2.03125L9.19629 2.00098L9.22754 1.99805C9.74249 1.94446 10.2575 1.94446 10.7725 1.99805L10.8037 2.00098L10.8145 2.03125C11.0199 2.59829 11.3213 3.11962 11.7188 3.59473C12.1159 4.06946 12.5887 4.46142 13.1367 4.77148C13.6845 5.08139 14.2732 5.28263 14.9033 5.375C15.5338 5.46739 16.1504 5.4473 16.7529 5.31543L16.7852 5.30859L16.8037 5.33594C16.9564 5.54989 17.0995 5.76346 17.2314 5.97754C17.3637 6.19206 17.4853 6.4137 17.5967 6.6416L17.6123 6.67285L17.5879 6.69727C17.1634 7.1456 16.8391 7.6539 16.6133 8.2207C16.3875 8.78743 16.2744 9.38027 16.2744 10C16.2744 10.6197 16.3875 11.2126 16.6133 11.7793C16.8391 12.3461 17.1634 12.8544 17.5879 13.3027L17.6123 13.3271L17.5967 13.3584C17.374 13.814 17.1098 14.2497 16.8037 14.665L16.7842 14.6914L16.7529 14.6846C16.1504 14.5527 15.5338 14.5326 14.9033 14.625C14.2732 14.7174 13.6808 14.9185 13.126 15.2285C12.5712 15.5386 12.099 15.9308 11.709 16.4053C11.3184 16.8804 11.0199 17.4015 10.8145 17.9688L10.8037 17.998L10.7725 18.002ZM10 12.9473C10.5589 12.9473 11.0726 12.8158 11.542 12.5537C12.0117 12.2915 12.3823 11.9344 12.6543 11.4824C12.9261 11.0309 13.0625 10.5371 13.0625 10C13.0625 9.46288 12.9261 8.96913 12.6543 8.51758C12.3823 8.06565 12.0117 7.70853 11.542 7.44629C11.0726 7.18421 10.5589 7.05273 10 7.05273C9.44112 7.05273 8.92745 7.18421 8.45801 7.44629C7.98829 7.70853 7.61775 8.06565 7.3457 8.51758C7.07394 8.96912 6.9375 9.46288 6.9375 10C6.9375 10.5371 7.07394 11.0309 7.3457 11.4824C7.61775 11.9344 7.98829 12.2915 8.45801 12.5537C8.92745 12.8158 9.44112 12.9473 10 12.9473ZM10 11.0488C9.69723 11.0488 9.43882 10.9477 9.22852 10.7451C9.01829 10.5425 8.91309 10.2931 8.91309 10C8.91309 9.70688 9.01829 9.45746 9.22852 9.25488C9.43882 9.05235 9.69723 8.95117 10 8.95117C10.3028 8.95117 10.5612 9.05235 10.7715 9.25488C10.9817 9.45746 11.0869 9.70688 11.0869 10C11.0869 10.2931 10.9817 10.5425 10.7715 10.7451C10.5612 10.9477 10.3028 11.0488 10 11.0488Z" fill="white" stroke="black" stroke-width="0.1"/>
</svg>
