<svg width="14" height="14" viewBox="0 0 14 14" fill="none" xmlns="http://www.w3.org/2000/svg">
<path d="M8.18587 10.514L5.09114 8.918C4.81605 9.18867 4.49184 9.40333 4.1185 9.562C3.74517 9.72067 3.35219 9.8 2.93956 9.8C2.40903 9.8 1.9178 9.674 1.46587 9.422C1.01394 9.17 0.655345 8.82933 0.390082 8.4C0.124819 7.97067 -0.0078125 7.504 -0.0078125 7C-0.0078125 6.496 0.124819 6.02933 0.390082 5.6C0.655345 5.17067 1.01394 4.83 1.46587 4.578C1.9178 4.326 2.40903 4.2 2.93956 4.2C3.35219 4.2 3.74517 4.27933 4.1185 4.438C4.49184 4.59667 4.81605 4.81133 5.09114 5.082L8.18587 3.486C8.12692 3.262 8.09745 3.03333 8.09745 2.8C8.09745 2.296 8.23008 1.82933 8.49535 1.4C8.76061 0.970666 9.11921 0.629999 9.57113 0.377999C10.0231 0.125999 10.5143 0 11.0448 0C11.5753 0 12.0666 0.125999 12.5185 0.377999C12.9704 0.629999 13.329 0.970666 13.5943 1.4C13.8596 1.82933 13.9922 2.296 13.9922 2.8C13.9922 3.304 13.8596 3.77067 13.5943 4.2C13.329 4.62933 12.9704 4.97 12.5185 5.222C12.0666 5.474 11.5753 5.6 11.0448 5.6C10.6322 5.6 10.2392 5.52067 9.86587 5.362C9.49254 5.20333 9.16833 4.98867 8.89324 4.718L5.7985 6.314C5.85745 6.538 5.88692 6.76667 5.88692 7C5.88692 7.23333 5.85745 7.462 5.7985 7.686L8.89324 9.282C9.16833 9.01133 9.49254 8.79667 9.86587 8.638C10.2392 8.47933 10.6322 8.4 11.0448 8.4C11.5753 8.4 12.0666 8.526 12.5185 8.778C12.9704 9.03 13.329 9.37067 13.5943 9.8C13.8596 10.2293 13.9922 10.696 13.9922 11.2C13.9922 11.704 13.8596 12.1707 13.5943 12.6C13.329 13.0293 12.9704 13.37 12.5185 13.622C12.0666 13.874 11.5753 14 11.0448 14C10.5143 14 10.0231 13.874 9.57113 13.622C9.11921 13.37 8.76061 13.0293 8.49535 12.6C8.23008 12.1707 8.09745 11.704 8.09745 11.2C8.09745 10.9667 8.12692 10.738 8.18587 10.514ZM2.93956 8.4C3.20482 8.4 3.45043 8.337 3.6764 8.211C3.90236 8.085 4.08166 7.91467 4.21429 7.7C4.34692 7.48533 4.41324 7.252 4.41324 7C4.41324 6.748 4.34692 6.51467 4.21429 6.3C4.08166 6.08533 3.90236 5.915 3.6764 5.789C3.45043 5.663 3.20482 5.6 2.93956 5.6C2.67429 5.6 2.42868 5.663 2.20271 5.789C1.97675 5.915 1.79745 6.08533 1.66482 6.3C1.53219 6.51467 1.46587 6.748 1.46587 7C1.46587 7.252 1.53219 7.48533 1.66482 7.7C1.79745 7.91467 1.97675 8.085 2.20271 8.211C2.42868 8.337 2.67429 8.4 2.93956 8.4ZM11.0448 4.2C11.3101 4.2 11.5557 4.137 11.7817 4.011C12.0076 3.885 12.1869 3.71467 12.3196 3.5C12.4522 3.28533 12.5185 3.052 12.5185 2.8C12.5185 2.548 12.4522 2.31467 12.3196 2.1C12.1869 1.88533 12.0076 1.715 11.7817 1.589C11.5557 1.463 11.3101 1.4 11.0448 1.4C10.7796 1.4 10.5339 1.463 10.308 1.589C10.082 1.715 9.90271 1.88533 9.77008 2.1C9.63745 2.31467 9.57113 2.548 9.57113 2.8C9.57113 3.052 9.63745 3.28533 9.77008 3.5C9.90271 3.71467 10.082 3.885 10.308 4.011C10.5339 4.137 10.7796 4.2 11.0448 4.2ZM11.0448 12.6C11.3101 12.6 11.5557 12.537 11.7817 12.411C12.0076 12.285 12.1869 12.1147 12.3196 11.9C12.4522 11.6853 12.5185 11.452 12.5185 11.2C12.5185 10.948 12.4522 10.7147 12.3196 10.5C12.1869 10.2853 12.0076 10.115 11.7817 9.989C11.5557 9.863 11.3101 9.8 11.0448 9.8C10.7796 9.8 10.5339 9.863 10.308 9.989C10.082 10.115 9.90271 10.2853 9.77008 10.5C9.63745 10.7147 9.57113 10.948 9.57113 11.2C9.57113 11.452 9.63745 11.6853 9.77008 11.9C9.90271 12.1147 10.082 12.285 10.308 12.411C10.5339 12.537 10.7796 12.6 11.0448 12.6Z" fill="black" fill-opacity="0.5"/>
</svg>
