<svg width="21" height="24" viewBox="0 0 21 24" fill="none" xmlns="http://www.w3.org/2000/svg">
<path d="M1 6.5L3.7087 1.9855C3.88942 1.6843 4.21493 1.5 4.56619 1.5H18.5C19.0523 1.5 19.5 1.94772 19.5 2.5V6.5M1 6.5V21.5C1 22.0523 1.44772 22.5 2 22.5H18.5C19.0523 22.5 19.5 22.0523 19.5 21.5V6.5M1 6.5H19.5" stroke="black" stroke-width="2"/>
<path d="M17 8.5C17 9.82608 16.4732 11.0979 15.5355 12.0355C14.5979 12.9732 13.3261 13.5 12 13.5C10.6739 13.5 9.40215 12.9732 8.46447 12.0355C7.52678 11.0979 7 9.82608 7 8.5" stroke="black" stroke-width="2"/>
</svg>
