<svg width="15" height="12" viewBox="0 0 15 12" fill="none" xmlns="http://www.w3.org/2000/svg">
<path d="M14.1536 2.66667H14.8203V9.33333H14.1536V11.3333C14.1536 11.52 14.0892 11.6778 13.9603 11.8067C13.8314 11.9356 13.6736 12 13.487 12H1.48698C1.30031 12 1.14253 11.9356 1.01365 11.8067C0.884757 11.6778 0.820312 11.52 0.820312 11.3333V0.666666C0.820312 0.48 0.884757 0.322222 1.01365 0.193333C1.14253 0.0644445 1.30031 0 1.48698 0H13.487C13.6736 0 13.8314 0.0644445 13.9603 0.193333C14.0892 0.322222 14.1536 0.48 14.1536 0.666666V2.66667ZM12.8203 9.33333H8.82031C8.21587 9.33333 7.65809 9.18444 7.14698 8.88667C6.63587 8.58889 6.23142 8.18444 5.93365 7.67333C5.63587 7.16222 5.48698 6.60444 5.48698 6C5.48698 5.39556 5.63587 4.83778 5.93365 4.32667C6.23142 3.81556 6.63587 3.41111 7.14698 3.11333C7.65809 2.81556 8.21587 2.66667 8.82031 2.66667H12.8203V1.33333H2.15365V10.6667H12.8203V9.33333ZM13.487 8V4H8.82031C8.45587 4 8.12031 4.08889 7.81365 4.26667C7.50698 4.44444 7.26476 4.68667 7.08698 4.99333C6.9092 5.3 6.82031 5.63556 6.82031 6C6.82031 6.36444 6.9092 6.7 7.08698 7.00667C7.26476 7.31333 7.50698 7.55556 7.81365 7.73333C8.12031 7.91111 8.45587 8 8.82031 8H13.487ZM8.82031 5.33333H10.8203V6.66667H8.82031V5.33333Z" fill="black" fill-opacity="0.5"/>
</svg>
